<?xml version="1.0" encoding="UTF-8" standalone="no"?>
<svg
   version="1.0"
   width="730pt"
   height="730pt"
   viewBox="0 0 730 730"
   preserveAspectRatio="xMidYMid"
   id="svg16"
   sodipodi:docname="horton_part_logo.svg"
   inkscape:version="1.3 (0e150ed, 2023-07-21)"
   xmlns:inkscape="http://www.inkscape.org/namespaces/inkscape"
   xmlns:sodipodi="http://sodipodi.sourceforge.net/DTD/sodipodi-0.dtd"
   xmlns="http://www.w3.org/2000/svg"
   xmlns:svg="http://www.w3.org/2000/svg">
  <defs
     id="defs16" />
  <sodipodi:namedview
     id="namedview16"
     pagecolor="#ffffff"
     bordercolor="#000000"
     borderopacity="0.25"
     inkscape:showpageshadow="2"
     inkscape:pageopacity="0.0"
     inkscape:pagecheckerboard="0"
     inkscape:deskcolor="#d1d1d1"
     inkscape:document-units="pt"
     inkscape:zoom="0.32233986"
     inkscape:cx="252.83873"
     inkscape:cy="-74.455576"
     inkscape:window-width="1392"
     inkscape:window-height="1027"
     inkscape:window-x="0"
     inkscape:window-y="25"
     inkscape:window-maximized="0"
     inkscape:current-layer="svg16" />
  <g
     transform="matrix(0.1,0,0,-0.1,-123.26268,867.06716)"
     fill="#000000"
     stroke="none"
     id="g16">
    <path
       d="m 7822,7870 c -194,-27 -450,-117 -696,-243 -127,-65 -369,-226 -471,-314 -79,-68 -314,-311 -675,-696 -176,-188 -188,-198 -255,-226 -38,-16 -79,-31 -89,-33 -40,-7 -26,-28 41,-62 113,-57 223,-117 223,-122 0,-5.7614 -298.2277,-330.6417 -311.6048,-416.054 L 5947,6148 c 15,-6 32,-15 37,-20 5,-4 -49,-66 -120,-139 -155,-157 -178,-181 -226,-237 -21,-23 -39.094,-40.6742 -38,-39 434.6662,665.1895 5.0452,72.1352 -20,89 -2.4885,1.6757 12,32 27,64 34,76 36,171 3,238 -23,49 -95,105 -170,132 -70,25 -182,22 -261,-8 -83,-31 -128,-67 -170,-137 -30,-48 -34,-65 -37,-137 -4,-73 -1,-85 21,-121 25,-39 59,-72 107,-104 15,-10 18,-16 9,-16 -12,-1 -142,-46 -419,-148 -68,-25 -212,-75 -445,-155 -412,-141 -797,-279 -1015,-365 -74,-29 -152,-59 -173,-67 l -38,-14 173,-96 c 95,-53 182,-98 194,-102 14,-4 95,23 245,82 693,275 897,352 938,352 50,0 962,-185 994,-202 9,-5 17,-17 17,-28 0,-14 16,-24 67,-41 87,-29 207,-111 263,-181 25,-31 79,-123 120,-205 144,-287 214,-395 332,-509 217,-212 534,-336 893,-351 173,-6 281,8 430,58 175,59 282,138 375,280 81,124 94,175 94,384 0,184 -6,222 -56,319 -64,129 -176,243 -326,334 -178,108 -316,149 -842,252 -273,53 -863,171 -927,185 -14,3 -32,-4 -51,-20 -17,-14 -32,-25 -35,-25 -12,0 -211,128 -220,141 -7,11 10,34 70,94 101,103 331,319 343,323 5,2 22,-4 39,-13 29,-14 36,-14 148,19 65,19 226,64 358,101 674,187 853,242 995,302 346,148 685,450 792,705 97,231 70,458 -74,614 -43,47 -134,95 -223,119 -73,19 -238,27 -323,15 z m 173,-341 c 46,-12 91,-51 99,-84 16,-63 -64,-197 -180,-303 -277,-255 -870,-488 -1138,-448 -145,22 -133,156 29,319 179,179 486,359 788,461 189,64 309,80 402,55 z m 94,-470 c -95,-120 -334,-293 -544,-394 -195,-94 -376,-156 -930,-317 -375,-109 -456,-129 -469,-120 -6,5 -78,44 -161,87 -82,42 -154,81 -159,85 -5,5 2,12 15,15 24,6 60,-10 263,-118 l 58,-31 69,18 c 38,10 135,38 216,62 82,25 265,78 407,120 627,182 891,312 1211,598 28,24 52,42 54,41 2,-2 -11,-23 -30,-46 z M 5383,6104 c 53,-27 70,-52 75,-109 4,-44 1,-55 -20,-78 -180.1676,-194.581 -474.1584,89.6995 -233,189 42,19 139,17 178,-2 z m 237,-634 c 66,-33 120,-62 120,-64 0,-2 -21,-18 -47,-34 -27,-17 -95,-65 -153,-106 -108,-79 -126,-85 -190,-66 -19,6 -109,26 -200,45 -187,40 -270,63 -270,75 l 560,200 c 30,18 62,9 180,-50 z m 200,-168 c 0,-4 -29,-32 -65,-62 -35,-30 -65,-58 -65,-61 0,-3 17,-13 37,-23 64,-30 172,-105 225,-154 64,-60 119,-137 199,-282 186,-338 319,-477 567,-592 158,-73 308,-106 537,-117 l 130,-6 v -25 c 0,-25 -1,-25 -94,-28 -325,-10 -704,140 -922,365 -83,85 -178,223 -241,348 -118,235 -250,371 -450,465 -45,21 -78,39 -71,39 6,1 40,25 75,54 79,67 138,101 138,79 z m 1320,-403 c 470,-67 769,-337 599,-542 -172,-209 -795,-141 -1050,114 -95,94 -124,178 -98,274 17,62 44,91 114,126 93,45 244,55 435,28 z"
       id="path1"
       sodipodi:nodetypes="cccccccscccccsscccccccscccccccccscssccccccscccccsccccccccccccccccccccccccccccccccccccccssccccccsscsccccccsccccccscccccc" />
    <path
       d="m 5048,7792 c -73,-20 -159,-73 -210,-130 -17,-20 -45,-66 -62,-102 -28,-59 -31,-74 -30,-160 0,-73 5,-107 22,-150 12,-30 22,-60 22,-66 0,-11 -136,-112 -370,-276 -263,-184 -329,-228 -342,-228 -8,0 -25,8 -38,17 -14,10 -133,85 -265,168 -132,82 -251,158 -264,167 l -23,17 33,78 c 32,73 34,85 34,189 0,107 -1,112 -37,185 -78,158 -207,239 -378,239 -92,0 -172,-25 -247,-76 -64,-44 -95,-84 -140,-181 -30,-65 -35,-86 -35,-152 -1,-83 15,-149 56,-229 14,-28 26,-56 26,-61 0,-10 -96,-80 -310,-226 -63,-43 -140,-96 -171,-117 l -56,-39 -184,118 c -409,264 -637,403 -650,398 -8,-4 -50,-54 -94,-112 -120,-157 -111,-141 -89,-162 16,-16 267,-170 774,-477 l 115,-69 3,-706 2,-705 58,-34 c 31,-18 143,-87 247,-153 415,-262 392,-250 428,-232 51,24 262,169 262,180 0,5 -72,53 -160,107 -88,53 -228,138 -311,189 l -152,92 -7,204 c -4,112 -4,399 0,638 l 8,434 186,134 c 270,196 465,330 476,330 6,0 125,-69 265,-155 140,-85 330,-198 423,-252 l 167,-98 v -153 -153 l 38,-6 c 20,-3 87,-10 147,-16 61,-6 120,-13 133,-16 l 22,-4 v 213 212 l 98,86 c 96,84 501,426 550,463 21,17 42,20 141,20 115,1 119,2 193,39 88,43 149,105 193,196 40,80 47,220 16,313 -42,125 -105,197 -221,252 -82,39 -189,45 -292,18 z m 285,-122 c 30,-31 37,-47 37,-78 0,-49 -34,-88 -84,-97 -34,-7 -36,-9 -36,-49 0,-82 -47,-128 -128,-128 -62,1 -100,19 -136,66 -33,44 -41,81 -27,134 14,49 78,109 128,118 22,4 42,17 56,36 29,39 52,49 107,43 36,-4 52,-13 83,-45 z m -2067,-36 c 43,-21 74,-71 74,-120 0,-54 -22,-82 -76,-95 -41,-11 -44,-13 -44,-46 0,-101 -127,-150 -218,-83 -72,52 -91,124 -53,199 22,43 47,62 106,81 22,7 44,19 48,27 14,23 70,53 100,53 16,0 44,-7 63,-16 z m 1725,-375 c 9,-17 8,-24 -4,-36 -19,-19 -57,-1 -57,26 0,37 42,44 61,10 z m -2047,-51 c 14,-20 14,-24 1,-37 -11,-12 -17,-12 -29,-1 -23,19 -20,60 5,60 4,0 15,-10 23,-22 z m 10,-164 c 29,-11 17,-40 -31,-74 -247,-175 -392,-274 -411,-283 -24,-11 -41,1 -42,29 0,6 71,61 158,122 86,61 189,134 227,161 76,54 76,54 99,45 z m 1656,-109 c 18,-21 10,-28 -153,-147 -146,-104 -180,-120 -185,-82 -2,16 16,35 84,85 236,173 232,170 254,144 z"
       id="path3" />
    <path
       d="m 4805,6022 c -357,-199 -388,-215 -401,-198 -12,17 -39,21 -509,75 -198,22 -274,30 -1005,101 -113,11 -222,20 -242,20 -35,0 -38,-2 -38,-28 0,-17 8,-32 21,-40 25,-16 679,-342 877,-437 78,-38 142,-72 142,-76 0,-10 -116,-75 -395,-224 -191,-102 -335,-187 -329,-196 3,-5 22,-18 41,-28 l 37,-18 48,28 c 26,16 102,54 169,85 67,30 142,68 168,84 25,15 179,95 341,178 826,420 1134,582 1140,599 8,21 1,103 -9,103 -3,0 -28,-13 -56,-28 z M 3340,5831 c 85,-11 229,-27 320,-36 285,-26 560,-58 560,-64 0,-3 -33,-23 -73,-43 -40,-21 -118,-65 -174,-98 -56,-33 -108,-60 -114,-60 -14,0 -77,28 -304,133 -82,38 -213,96 -290,129 -77,33 -142,62 -145,65 -3,3 11,3 30,-1 19,-3 105,-15 190,-25 z"
       id="path4" />
    <path
       d="m 4195,4894 c -82,-36 -153,-71 -157,-77 -4,-7 -8,-155 -8,-329 0,-175 -4,-318 -8,-318 -4,0 -46,24 -93,53 -46,30 -194,123 -329,208 -135,85 -261,165 -281,177 l -37,22 -177,-124 -177,-124 -75,53 c -103,75 -151,89 -277,83 -80,-4 -115,-11 -170,-33 -125,-51 -221,-176 -248,-324 -33,-174 80,-380 252,-460 49,-23 68,-26 165,-26 99,0 116,3 168,27 82,39 134,83 178,151 53,81 73,148 74,237 v 75 l 70,52 c 39,29 84,60 101,69 30,17 31,16 100,-29 77,-50 551,-346 657,-411 l 69,-41 -6,-40 c -18,-118 -18,-182 -1,-240 18,-64 68,-170 85,-180 5,-3 10,-13 10,-21 0,-12 -41,-14 -262,-14 -366,0 -715,-20 -825,-47 -27,-6 -30,-29 -5,-37 80,-24 565,-64 987,-82 600,-25 1134,-10 1478,41 148,22 177,48 81,73 -75,19 -212,30 -534,43 -162,7 -297,13 -299,15 -2,2 11,21 28,43 17,21 44,66 59,98 25,53 27,69 28,180 1,120 1,123 27,143 59,47 438,314 621,438 107,73 198,137 201,142 4,7 -250,185 -313,219 -18,10 -43,-5 -199,-117 -98,-71 -273,-196 -390,-279 l -211,-150 -82,18 c -45,9 -85,20 -88,24 -4,4 -6,194 -4,423 1,230 0,427 -3,440 -3,12 -11,22 -18,21 -6,0 -79,-30 -162,-65 z m 1169,-401 c 9,-24 -13,-43 -209,-179 -93,-64 -236,-164 -317,-221 -145,-103 -183,-119 -183,-78 0,20 65,69 410,310 86,61 178,127 204,147 50,40 85,48 95,21 z m -2643,-90 c 32,-19 59,-68 59,-107 0,-57 -33,-90 -100,-98 -19,-2 -24,-8 -22,-25 2,-12 -6,-43 -17,-68 -45,-103 -180,-100 -246,4 -62,99 -9,218 110,247 17,4 45,20 63,36 39,33 106,38 153,11 z m -333,-446 c 2,-18 -1,-27 -11,-27 -21,0 -38,25 -31,44 10,26 39,15 42,-17 z m 2147,-26 c 70,-32 94,-77 75,-136 -14,-43 -53,-75 -91,-75 -25,0 -29,-4 -29,-26 0,-73 -64,-134 -141,-134 -139,0 -204,198 -92,278 16,11 45,24 66,30 21,6 47,23 59,37 37,48 88,56 153,26 z m -315,-430 c 14,-27 2,-51 -26,-51 -17,0 -25,7 -30,24 -3,14 -3,30 1,35 10,18 44,12 55,-8 z"
       id="path6" />
    <path
       d="m 2880,2475 v -315 h 65 64 l 3,133 3,132 h 115 115 l 3,-127 c 3,-144 3,-143 88,-136 l 39,3 v 310 310 h -60 -60 l -5,-119 -5,-119 -115,-1 -115,-1 -5,120 -5,120 -62,3 -63,3 z"
       id="path7" />
    <path
       d="m 5837,2783 c -9,-8 -9,-586 -1,-607 5,-12 21,-16 65,-16 54,0 59,2 60,23 0,12 1,56 2,97 l 2,75 85,5 c 72,4 94,10 142,38 32,17 60,32 63,32 3,0 5,-22 5,-49 0,-99 88,-210 179,-225 51,-8 124,10 147,35 20,23 34,24 34,4 0,-24 37,-37 85,-29 l 45,6 v 229 229 h -60 -60 v -30 c 0,-34 -11,-38 -31,-13 -51,61 -178,55 -258,-14 -22,-18 -42,-30 -44,-26 -3,5 -8,31 -12,59 -11,87 -66,150 -150,173 -43,12 -287,15 -298,4 z m 282,-139 c 26,-22 31,-33 31,-71 0,-36 -6,-50 -29,-74 -27,-26 -36,-29 -95,-29 h -66 v 84 c 0,115 1,116 70,116 48,0 64,-5 89,-26 z m 426,-138 c 100,-42 98,-196 -4,-227 -74,-22 -138,24 -147,107 -5,41 -2,54 17,78 19,25 68,54 92,56 4,0 23,-6 42,-14 z"
       id="path8" />
    <path
       d="m 7220,2761 -55,-29 -5,-58 c -4,-52 -8,-59 -27,-62 -20,-3 -23,-9 -23,-47 0,-40 2,-44 28,-47 l 27,-3 5,-130 c 6,-145 14,-169 73,-206 25,-15 46,-19 97,-17 l 65,3 3,51 3,52 -45,6 c -24,4 -49,13 -55,20 -7,8 -13,60 -14,117 l -2,104 50,3 c 54,4 65,13 65,53 0,35 -16,47 -70,51 l -45,3 v 79 c 0,44 -4,80 -10,82 -5,2 -35,-10 -65,-25 z"
       id="path9" />
    <path
       d="m 4375,2750 c -48,-28 -50,-31 -55,-82 -5,-49 -7,-53 -33,-56 -27,-3 -28,-6 -25,-50 3,-42 6,-47 29,-50 26,-3 26,-3 36,-131 10,-142 24,-175 87,-205 36,-17 122,-21 144,-7 9,5 12,24 10,52 -3,43 -4,44 -47,55 -62,14 -71,32 -71,135 0,98 5,106 65,111 l 40,3 v 45 45 l -50,5 -50,5 -3,78 c -2,52 -7,77 -15,77 -7,0 -34,-14 -62,-30 z"
       id="path10" />
    <path
       d="m 3598,2620 c -75,-22 -132,-82 -163,-170 -44,-121 42,-260 180,-291 112,-25 216,22 267,121 96,183 -85,400 -284,340 z m 107,-124 c 101,-42 94,-182 -11,-216 -66,-22 -134,34 -134,110 0,42 24,86 58,104 34,19 45,19 87,2 z"
       id="path11" />
    <path
       d="m 3977,2623 c -16,-4 -17,-22 -15,-231 l 3,-227 h 55 55 l 5,130 c 7,168 25,200 112,197 l 38,-2 v 70 c 0,56 -3,70 -15,70 -21,0 -88,-35 -104,-54 -21,-26 -41,-19 -41,13 0,36 -35,49 -93,34 z"
       id="path12" />
    <path
       d="m 4745,2619 c -43,-12 -112,-74 -137,-123 -57,-107 -3,-261 111,-320 114,-59 271,-2 327,118 32,68 31,128 -2,194 -55,111 -180,166 -299,131 z m 152,-142 c 31,-29 36,-40 37,-80 1,-56 -25,-96 -77,-116 -32,-12 -40,-11 -74,6 -47,24 -78,79 -68,124 4,17 20,46 37,65 42,48 93,48 145,1 z"
       id="path13" />
    <path
       d="m 5106,2585 c -9,-60 -5,-376 6,-404 7,-19 14,-22 60,-19 l 53,3 5,146 c 5,144 10,166 45,191 25,19 73,8 99,-23 25,-29 26,-36 26,-149 0,-65 4,-130 10,-145 9,-24 14,-26 62,-23 l 53,3 v 155 c 0,186 -6,219 -47,259 -58,57 -147,61 -212,10 -28,-22 -46,-18 -46,10 0,20 -26,31 -76,31 -30,0 -32,-3 -38,-45 z"
       id="path14" />
    <path
       d="m 6817,2623 c -16,-4 -17,-22 -15,-231 l 3,-227 57,-3 56,-3 4,133 c 3,111 6,138 22,161 25,36 56,48 95,37 l 31,-9 v 75 c 0,89 -7,92 -90,40 l -55,-35 -5,32 c -5,29 -8,32 -45,34 -22,0 -48,-1 -58,-4 z"
       id="path15" />
    <path
       d="m 5572,2393 3,-48 85,-3 c 123,-4 130,-1 130,53 v 45 h -111 -110 z"
       id="path16" />
  </g>
</svg>
